<?xml version="1.0" standalone="no"?>
<!DOCTYPE svg PUBLIC "-//W3C//DTD SVG 20010904//EN"
 "http://www.w3.org/TR/2001/REC-SVG-20010904/DTD/svg10.dtd">
<svg version="1.0" xmlns="http://www.w3.org/2000/svg"
 width="352.000000pt" height="352.000000pt" viewBox="0 0 352.000000 352.000000"
 preserveAspectRatio="xMidYMid meet">
<metadata>
Created by potrace 1.14, written by Peter Selinger 2001-2017
</metadata>
<g transform="translate(0.000000,352.000000) scale(0.100000,-0.100000)"
fill="#000000" stroke="none">
<path d="M1667 3514 c-1 -1 -38 -4 -82 -8 -44 -3 -91 -8 -105 -11 -14 -3 -38
-8 -55 -11 -219 -39 -495 -157 -685 -292 -188 -133 -400 -368 -514 -571 -78
-137 -170 -380 -190 -501 -3 -19 -11 -62 -17 -95 -14 -78 -19 -359 -9 -453 34
-292 130 -556 289 -792 432 -639 1233 -924 1971 -698 36 11 74 23 85 28 11 4
36 14 55 21 67 24 216 102 299 156 303 197 543 487 676 818 34 83 90 279 100
350 3 16 9 57 14 90 10 60 7 399 -3 465 -69 421 -253 764 -560 1048 -64 59
-208 172 -220 172 -3 0 -22 12 -43 26 -38 26 -190 103 -268 136 -107 44 -284
90 -420 109 -74 10 -310 20 -318 13z"/>
</g>
</svg>
